<?xml version="1.0" encoding="iso-8859-1"?>
<!-- Generator: Adobe Illustrator 21.1.0, SVG Export Plug-In . SVG Version: 6.00 Build 0)  -->
<svg version="1.1" id="Layer_1" xmlns="http://www.w3.org/2000/svg" xmlns:xlink="http://www.w3.org/1999/xlink" x="0px" y="0px"
	 viewBox="0 0 100.176 100.178" style="enable-background:new 0 0 100.176 100.178;" xml:space="preserve">
<path d="M89.659,48.599c-0.269-2.559-1.498-4.676-3.462-5.959c-0.966-0.632-2.093-1.06-3.264-1.287
	c2.966-2.764,5.124-7.337,1.851-14.579c-2.7-5.976-14.049-16.532-24.192-18.867c-9.579-2.208-13.217,0.504-13.811,1.028
	C31.223,21.672,22.643,52.531,22.285,53.84c-0.007,0.025-0.007,0.05-0.013,0.074c-1.802,0.498-3.267,1.516-4.225,2.981l-6.631,10.14
	c-1.053,1.604-1.379,3.557-0.944,5.646c0.621,2.978,2.692,5.809,5.683,7.766L31.729,90.64c2.348,1.537,4.928,2.289,7.295,2.289
	c2.892,0,5.463-1.124,6.899-3.312l6.632-10.141c0.63-0.962,0.994-2.049,1.095-3.215c3.201-0.535,5.454-4.405,6.327-6.177
	l10.234-1.265c11.341-1.396,17.049-11.92,17.629-13.047C89.268,53.563,89.913,51.018,89.659,48.599z M59.918,10.831
	c8.854,2.038,19.726,11.853,22.132,17.179c2.438,5.391,1.704,9.231-2.306,12.084c-0.991,0.704-1.933,1.393-2.853,2.075
	c-0.056,0.038-0.111,0.076-0.161,0.12c-2.692,2.001-5.083,3.909-7.177,5.73c-6.328,2.232-13.158,1.414-18.781-2.267
	c-4.771-3.122-8.041-7.915-9.207-13.496s-0.088-11.28,3.036-16.049c1.075-1.644,3.168-3.754,5.621-5.68
	C51.813,10.044,54.83,9.658,59.918,10.831z M50.045,77.834C50.045,77.834,50.045,77.835,50.045,77.834l-6.632,10.141
	c-1.674,2.551-6.271,2.623-10.042,0.156L17.797,77.936c-2.295-1.502-3.936-3.696-4.388-5.868c-0.188-0.9-0.25-2.22,0.517-3.39
	l6.632-10.141c0.771-1.181,2.187-1.879,3.983-1.966c0.129-0.007,0.259-0.01,0.39-0.01c1.866,0,3.862,0.639,5.665,1.817
	l15.575,10.194c2.296,1.503,3.938,3.696,4.39,5.869c0.022,0.108,0.043,0.222,0.06,0.341c0.003,0.081,0.012,0.161,0.028,0.239
	C50.739,75.861,50.661,76.894,50.045,77.834z M85.286,54.203c-0.031,0.048-0.062,0.1-0.087,0.151
	c-0.052,0.102-5.247,10.244-15.354,11.49l-11.062,1.366c-0.531,0.065-0.987,0.41-1.197,0.902c-0.697,1.638-2.5,4.64-4.247,5.13
	c-0.757-2.76-2.732-5.352-5.526-7.179L32.238,55.87c-2.116-1.385-4.475-2.166-6.755-2.285c1.165-3.909,5.694-18.159,13.007-30
	c-0.546,3.035-0.511,6.176,0.139,9.286c1.33,6.365,5.059,11.831,10.501,15.392c4.043,2.646,8.633,3.997,13.282,3.997
	c0.942,0,1.886-0.077,2.829-0.188c-2.984,3.071-5.018,5.873-6.116,8.437c-0.326,0.762,0.027,1.644,0.788,1.97
	c0.193,0.082,0.394,0.121,0.59,0.121c0.582,0,1.137-0.341,1.38-0.909c1.93-4.508,7.533-10.221,16.648-17
	c1.894-0.939,4.529-0.518,6.024,0.461c1.195,0.781,1.948,2.117,2.121,3.762C86.86,50.673,86.366,52.551,85.286,54.203z"/>
</svg>
